<svg id="svg" version="1.1" xmlns="http://www.w3.org/2000/svg" xmlns:xlink="http://www.w3.org/1999/xlink" width="400" height="260" viewBox="0, 0, 400,260"><g id="svgg"><path id="path0" d="M0.000 130.039 L 0.000 260.078 200.000 260.078 L 400.000 260.078 400.000 130.039 L 400.000 0.000 200.000 0.000 L 0.000 0.000 0.000 130.039 M98.038 99.415 C 98.370 100.023,99.604 102.217,100.780 104.291 C 104.603 111.035,106.287 114.018,107.090 115.475 C 108.536 118.096,108.841 118.592,109.012 118.594 C 109.160 118.595,111.617 114.369,113.999 110.013 C 114.430 109.226,115.055 108.146,115.388 107.612 C 115.722 107.079,115.995 106.579,115.995 106.502 C 115.995 106.425,116.270 105.925,116.606 105.391 C 116.942 104.858,117.666 103.602,118.214 102.601 C 118.763 101.599,119.520 100.254,119.897 99.610 L 120.582 98.440 127.003 98.370 L 133.424 98.300 133.357 116.445 L 133.290 134.590 127.438 134.590 L 121.586 134.590 121.517 128.153 C 121.478 124.534,121.344 121.717,121.212 121.717 C 121.082 121.717,119.364 124.555,117.393 128.023 C 115.422 131.492,113.687 134.416,113.537 134.521 C 112.798 135.039,104.031 134.712,104.031 134.167 C 104.031 134.037,103.756 133.493,103.420 132.960 C 103.083 132.426,101.748 130.117,100.452 127.828 C 99.156 125.540,96.856 121.506,95.342 118.864 L 92.588 114.062 92.588 110.477 C 92.588 108.505,92.641 106.892,92.706 106.892 C 92.771 106.892,93.494 108.033,94.313 109.428 C 95.132 110.822,96.530 113.192,97.419 114.694 C 98.308 116.196,99.331 117.952,99.692 118.596 C 100.054 119.239,101.751 122.165,103.465 125.098 L 106.580 130.429 109.077 130.504 C 110.450 130.545,111.573 130.477,111.573 130.354 C 111.573 130.231,112.393 128.752,113.394 127.066 C 114.395 125.381,115.215 123.961,115.215 123.911 C 115.215 123.862,116.034 122.464,117.035 120.806 C 118.036 119.148,118.856 117.743,118.856 117.683 C 118.856 117.623,119.476 116.545,120.235 115.289 C 120.994 114.032,122.359 111.687,123.269 110.078 C 124.179 108.469,125.020 107.152,125.138 107.152 C 125.256 107.152,125.383 112.389,125.420 118.791 L 125.488 130.429 127.503 130.505 L 129.519 130.581 129.519 116.526 L 129.519 102.471 126.203 102.475 L 122.887 102.480 121.348 105.141 C 120.501 106.605,119.264 108.739,118.597 109.883 C 117.931 111.027,116.502 113.485,115.421 115.345 C 114.341 117.204,112.572 120.247,111.490 122.107 C 110.408 123.966,109.443 125.697,109.346 125.954 C 109.248 126.210,109.068 126.386,108.946 126.344 C 108.772 126.285,102.496 115.459,98.196 107.802 C 97.875 107.230,97.051 105.796,96.365 104.616 L 95.118 102.471 91.770 102.471 L 88.422 102.471 88.489 116.450 L 88.557 130.429 90.507 130.429 L 92.458 130.429 92.588 126.918 L 92.718 123.407 94.045 125.618 C 96.594 129.861,96.520 129.655,96.435 132.250 L 96.359 134.590 91.027 134.664 C 88.095 134.705,85.432 134.673,85.111 134.594 L 84.525 134.450 84.525 116.380 L 84.525 98.309 90.979 98.309 L 97.433 98.309 98.038 99.415 M156.502 99.675 C 158.618 102.588,158.555 102.281,157.408 104.095 C 156.097 106.168,156.054 106.169,154.753 104.171 L 153.645 102.471 151.205 102.471 C 148.690 102.471,148.519 102.533,149.116 103.230 C 149.309 103.456,149.990 104.402,150.631 105.332 C 151.271 106.261,152.966 108.719,154.399 110.793 C 155.831 112.867,157.432 115.192,157.955 115.959 L 158.908 117.354 158.908 123.956 L 158.908 130.559 160.858 130.559 L 162.809 130.559 162.809 123.930 L 162.809 117.302 165.494 113.332 C 166.971 111.149,169.194 107.879,170.435 106.064 C 171.676 104.250,172.692 102.700,172.692 102.618 C 172.692 102.537,171.609 102.475,170.286 102.480 L 167.880 102.489 166.503 104.496 C 162.079 110.939,160.984 112.485,160.801 112.543 C 160.556 112.621,158.648 109.922,158.648 109.496 C 158.648 109.240,163.931 101.170,165.503 99.025 L 166.028 98.309 173.261 98.309 C 177.239 98.309,180.494 98.383,180.494 98.473 C 180.494 98.563,179.935 99.411,179.251 100.358 C 178.568 101.306,177.639 102.616,177.187 103.271 C 176.735 103.925,174.193 107.600,171.538 111.437 L 166.710 118.414 166.710 126.572 L 166.710 134.730 160.793 134.660 L 154.876 134.590 154.746 126.397 L 154.616 118.204 152.813 115.604 C 151.821 114.174,150.247 111.892,149.314 110.533 C 148.381 109.174,146.179 105.979,144.420 103.432 C 142.661 100.886,141.222 98.692,141.222 98.556 C 141.222 98.407,144.040 98.309,148.366 98.309 L 155.510 98.309 156.502 99.675 M194.339 101.951 C 195.040 103.882,195.773 105.871,195.968 106.372 C 196.163 106.873,196.807 108.628,197.399 110.273 C 197.991 111.918,198.638 113.674,198.837 114.174 C 199.035 114.675,199.871 116.986,200.695 119.311 C 202.106 123.294,202.467 123.987,202.726 123.212 C 203.139 121.979,209.465 104.653,210.015 103.251 C 210.211 102.750,210.698 101.434,211.096 100.325 L 211.821 98.309 216.025 98.309 L 220.228 98.309 220.381 99.155 C 220.465 99.620,220.653 101.814,220.800 104.031 C 220.947 106.248,221.125 108.472,221.196 108.973 C 221.267 109.473,221.441 111.521,221.582 113.524 C 221.870 117.591,222.491 125.489,222.882 130.039 C 223.023 131.684,223.140 133.410,223.143 133.875 L 223.147 134.720 220.301 134.720 C 218.736 134.720,217.400 134.630,217.332 134.521 C 217.211 134.324,216.796 129.948,215.995 120.416 C 214.819 106.422,214.771 106.038,214.350 107.181 C 214.224 107.523,213.645 109.090,213.064 110.663 C 212.112 113.239,210.987 116.331,207.763 125.228 C 207.192 126.801,206.568 128.498,206.375 128.999 C 206.182 129.499,205.631 130.962,205.151 132.250 L 204.277 134.590 202.569 134.666 C 200.479 134.759,200.562 134.848,199.199 131.056 C 198.613 129.424,197.628 126.684,197.012 124.967 C 196.395 123.251,195.399 120.501,194.798 118.856 C 194.198 117.211,193.204 114.460,192.590 112.744 C 191.976 111.027,191.187 108.864,190.836 107.937 L 190.198 106.250 190.042 107.156 C 189.956 107.655,189.816 108.999,189.731 110.143 C 189.646 111.287,189.407 114.213,189.200 116.645 C 188.760 121.798,188.103 129.632,187.890 132.262 C 187.682 134.833,187.798 134.751,184.504 134.665 L 181.664 134.590 181.704 133.940 C 181.811 132.191,182.349 125.149,182.579 122.497 C 182.835 119.535,183.199 114.996,184.026 104.421 C 184.261 101.417,184.496 98.810,184.549 98.628 C 184.622 98.373,185.616 98.313,188.854 98.368 L 193.064 98.440 194.339 101.951 M254.876 100.906 L 254.876 103.503 247.919 103.572 L 240.962 103.641 240.892 108.643 L 240.821 113.645 247.004 113.714 L 253.186 113.784 253.260 116.450 L 253.334 119.116 247.083 119.116 L 240.832 119.116 240.832 124.187 L 240.832 129.259 247.863 129.259 L 254.895 129.259 254.821 131.925 L 254.746 134.590 244.881 134.659 C 237.161 134.712,234.970 134.655,234.807 134.398 C 234.557 134.005,234.515 98.732,234.764 98.483 C 234.859 98.388,239.423 98.309,244.907 98.309 L 254.876 98.309 254.876 100.906 M283.312 100.325 C 283.711 101.434,284.198 102.750,284.394 103.251 C 284.778 104.230,287.383 111.314,289.989 118.466 C 290.875 120.897,291.694 123.121,291.809 123.407 C 293.280 127.085,295.703 134.101,295.596 134.378 C 295.488 134.661,294.836 134.722,292.553 134.664 L 289.649 134.590 288.264 130.709 C 287.503 128.575,286.782 126.730,286.661 126.609 C 286.541 126.489,282.940 126.421,278.661 126.459 L 270.879 126.528 270.012 128.999 C 269.535 130.358,268.884 132.172,268.565 133.030 L 267.986 134.590 265.160 134.665 C 261.369 134.764,261.450 135.032,263.591 129.519 C 263.786 129.018,264.783 126.326,265.807 123.537 C 266.831 120.748,268.466 116.300,269.440 113.654 C 270.413 111.008,271.938 106.853,272.827 104.421 C 273.716 101.990,274.600 99.620,274.790 99.155 L 275.136 98.309 278.862 98.309 L 282.587 98.309 283.312 100.325 M310.856 113.719 L 310.923 129.129 316.905 129.259 L 322.887 129.389 322.964 131.469 C 323.006 132.612,322.975 133.814,322.893 134.138 L 322.745 134.727 313.843 134.659 L 304.941 134.590 304.875 116.450 L 304.808 98.309 307.799 98.309 L 310.789 98.309 310.856 113.719 M278.686 104.791 C 278.516 105.067,275.679 112.875,275.041 114.824 C 274.854 115.397,274.278 117.027,273.761 118.448 C 273.245 119.869,272.822 121.068,272.822 121.114 C 272.822 121.159,275.527 121.196,278.834 121.196 C 284.437 121.196,284.837 121.165,284.714 120.741 C 284.641 120.491,284.030 118.765,283.356 116.905 C 282.682 115.046,281.976 113.056,281.788 112.484 C 279.957 106.925,278.934 104.389,278.686 104.791 M138.101 147.854 L 138.231 150.715 139.155 147.854 C 139.943 145.414,140.166 144.981,140.670 144.908 C 141.843 144.738,142.018 144.980,141.617 146.216 C 141.417 146.831,140.885 148.531,140.434 149.994 L 139.615 152.653 140.144 154.415 C 140.435 155.384,140.923 157.040,141.229 158.096 C 141.534 159.151,141.846 160.175,141.921 160.371 C 142.023 160.637,141.794 160.728,141.027 160.728 L 139.996 160.728 139.391 158.453 C 138.284 154.284,138.123 154.186,138.112 157.672 L 138.101 160.728 137.061 160.728 L 136.021 160.728 136.021 152.969 C 136.021 144.648,135.999 144.800,137.182 144.916 L 137.971 144.993 138.101 147.854 M147.675 145.694 C 147.752 146.359,147.694 146.398,146.505 146.474 L 145.254 146.554 145.179 149.090 L 145.105 151.625 145.972 151.625 C 147.766 151.625,148.122 153.108,146.359 153.236 L 145.254 153.316 145.254 156.047 L 145.254 158.778 146.489 158.857 C 147.708 158.935,147.724 158.948,147.724 159.832 L 147.724 160.728 145.514 160.728 L 143.303 160.728 143.303 152.785 L 143.303 144.842 145.449 144.918 C 147.563 144.992,147.595 145.004,147.675 145.694 M153.657 145.694 C 153.734 146.359,153.675 146.398,152.487 146.474 L 151.235 146.554 151.161 149.073 L 151.087 151.593 152.071 151.674 C 153.577 151.799,153.708 153.112,152.226 153.234 L 151.235 153.316 151.235 156.047 L 151.235 158.778 152.471 158.857 C 153.690 158.935,153.706 158.948,153.706 159.832 L 153.706 160.728 151.495 160.728 L 149.285 160.728 149.285 152.785 L 149.285 144.842 151.430 144.918 C 153.545 144.992,153.577 145.004,153.657 145.694 M159.144 145.091 C 160.577 145.491,161.276 147.984,160.869 151.239 C 160.636 153.107,159.989 153.823,158.306 154.075 L 157.087 154.258 157.087 157.493 L 157.087 160.728 156.177 160.728 L 155.267 160.728 155.267 152.796 L 155.267 144.863 156.892 144.889 C 157.786 144.904,158.800 144.994,159.144 145.091 M168.791 148.244 L 168.791 151.625 169.831 151.625 L 170.871 151.625 170.871 148.244 L 170.871 144.863 171.782 144.863 L 172.692 144.863 172.692 152.796 L 172.692 160.728 171.789 160.728 L 170.886 160.728 170.813 157.022 L 170.741 153.316 169.831 153.316 L 168.921 153.316 168.849 157.022 L 168.776 160.728 167.743 160.728 L 166.710 160.728 166.710 153.207 C 166.710 144.724,166.690 144.863,167.908 144.863 L 168.791 144.863 168.791 148.244 M179.194 145.644 C 179.194 146.395,179.150 146.424,178.023 146.424 L 176.853 146.424 176.853 149.009 L 176.853 151.594 177.828 151.675 C 179.386 151.804,179.461 153.186,177.911 153.186 L 176.853 153.186 176.853 156.047 L 176.853 158.908 178.023 158.908 C 179.188 158.908,179.194 158.912,179.194 159.818 L 179.194 160.728 176.983 160.728 L 174.772 160.728 174.772 152.969 C 174.772 144.069,174.539 144.863,177.156 144.863 L 179.194 144.863 179.194 145.644 M185.021 145.114 C 186.323 145.609,186.524 146.694,186.672 154.031 L 186.806 160.728 185.731 160.728 L 184.655 160.728 184.655 158.518 L 184.655 156.307 183.745 156.307 L 182.835 156.307 182.835 158.518 L 182.835 160.728 181.795 160.728 L 180.754 160.728 180.754 154.321 C 180.754 145.385,181.500 143.776,185.021 145.114 M190.637 151.886 L 190.767 158.778 192.003 158.857 C 193.222 158.935,193.238 158.948,193.238 159.832 L 193.238 160.728 191.027 160.728 L 188.817 160.728 188.817 152.779 L 188.817 144.831 189.662 144.912 L 190.507 144.993 190.637 151.886 M199.480 145.774 C 199.480 146.641,199.436 146.684,198.570 146.684 L 197.659 146.684 197.659 153.706 L 197.659 160.728 196.619 160.728 L 195.579 160.728 195.579 153.706 L 195.579 146.684 194.684 146.684 C 193.651 146.684,193.385 146.391,193.609 145.499 C 193.766 144.873,193.812 144.863,196.624 144.863 L 199.480 144.863 199.480 145.774 M202.703 145.275 C 202.790 145.501,202.861 147.023,202.861 148.656 L 202.861 151.625 203.763 151.625 L 204.666 151.625 204.739 148.309 L 204.811 144.993 205.722 144.993 L 206.632 144.993 206.701 152.861 L 206.770 160.728 205.733 160.728 L 204.696 160.728 204.624 157.022 L 204.551 153.316 203.706 153.234 L 202.861 153.153 202.861 156.941 L 202.861 160.728 201.821 160.728 L 200.780 160.728 200.780 152.796 L 200.780 144.863 201.663 144.863 C 202.227 144.863,202.602 145.012,202.703 145.275 M209.870 145.480 C 209.999 145.819,210.303 147.175,210.545 148.492 C 211.032 151.145,211.302 151.235,211.710 148.883 C 212.381 145.014,212.445 144.863,213.420 144.863 C 214.472 144.863,214.476 144.894,213.762 147.610 C 212.268 153.294,212.232 153.517,212.228 157.152 L 212.224 160.728 211.183 160.728 L 210.143 160.728 210.143 157.244 C 210.143 154.029,210.063 153.448,209.103 149.707 C 207.842 144.795,207.846 144.863,208.849 144.863 C 209.437 144.863,209.695 145.019,209.870 145.480 M228.869 145.644 C 228.869 146.395,228.825 146.424,227.698 146.424 L 226.528 146.424 226.528 149.009 L 226.528 151.594 227.503 151.675 C 229.061 151.804,229.136 153.186,227.586 153.186 L 226.528 153.186 226.528 156.047 L 226.528 158.908 227.698 158.908 C 228.862 158.908,228.869 158.912,228.869 159.818 L 228.869 160.728 226.658 160.728 L 224.447 160.728 224.447 152.796 L 224.447 144.863 226.658 144.863 L 228.869 144.863 228.869 145.644 M235.218 145.467 C 236.123 146.372,236.411 148.696,236.411 155.093 L 236.411 160.728 235.371 160.728 L 234.330 160.728 234.330 158.502 L 234.330 156.275 233.355 156.356 L 232.380 156.437 232.304 158.583 L 232.229 160.728 231.329 160.728 L 230.429 160.728 230.431 154.291 C 230.432 147.368,230.588 146.226,231.644 145.395 C 232.613 144.632,234.419 144.669,235.218 145.467 M242.988 145.689 C 243.280 146.081,243.562 146.970,243.634 147.724 L 243.763 149.063 242.883 148.979 C 242.076 148.902,241.979 148.798,241.721 147.724 C 241.176 145.465,240.201 146.033,240.107 148.664 L 240.032 150.774 240.911 151.525 C 241.395 151.938,242.053 152.451,242.374 152.666 C 244.160 153.861,244.490 158.520,242.908 160.213 C 240.836 162.431,237.978 160.574,237.973 157.006 C 237.970 155.227,239.870 155.657,240.052 157.477 C 240.203 158.987,241.368 159.593,241.705 158.336 C 242.249 156.304,241.601 154.372,240.023 153.327 C 237.570 151.704,237.044 146.427,239.207 145.138 C 240.129 144.589,242.417 144.922,242.988 145.689 M247.436 145.275 C 247.523 145.501,247.594 149.071,247.594 153.207 L 247.594 160.728 246.554 160.728 L 245.514 160.728 245.514 152.969 C 245.514 148.702,245.592 145.132,245.687 145.037 C 246.028 144.696,247.280 144.866,247.436 145.275 M251.338 145.275 C 251.424 145.501,251.495 148.661,251.495 152.297 L 251.495 158.908 252.796 158.908 L 254.096 158.908 254.096 159.818 L 254.096 160.728 251.756 160.728 L 249.415 160.728 249.415 152.969 C 249.415 148.702,249.493 145.132,249.588 145.037 C 249.929 144.696,251.181 144.866,251.338 145.275 M256.627 146.424 C 256.807 147.211,257.044 148.430,257.152 149.133 C 257.469 151.197,257.841 150.800,258.409 147.792 C 258.924 145.064,258.956 144.991,259.669 144.908 C 260.896 144.765,260.918 145.104,259.910 148.782 C 259.029 151.995,258.944 152.616,258.847 156.502 L 258.743 160.728 257.720 160.728 L 256.697 160.728 256.695 157.412 C 256.694 154.367,256.602 153.729,255.567 149.611 C 254.350 144.767,254.350 144.802,255.513 144.916 C 256.234 144.987,256.324 145.109,256.627 146.424 M263.919 151.040 L 263.849 157.217 263.175 157.296 L 262.500 157.374 262.329 154.199 C 261.905 146.304,262.046 144.863,263.247 144.863 L 263.989 144.863 263.919 151.040 M157.261 146.597 C 157.165 146.693,157.087 148.039,157.087 149.588 L 157.087 152.406 157.970 152.406 C 159.067 152.406,159.168 152.162,159.168 149.506 C 159.168 146.861,158.308 145.550,157.261 146.597 M183.160 146.738 C 182.884 147.074,182.755 149.310,182.807 152.861 L 182.835 154.746 183.745 154.746 L 184.655 154.746 184.629 151.300 C 184.596 146.863,184.164 145.519,183.160 146.738 M232.802 146.776 C 232.460 147.188,232.094 153.049,232.347 154.058 C 232.492 154.638,232.663 154.746,233.425 154.746 L 234.330 154.746 234.330 151.252 C 234.330 146.910,233.852 145.510,232.802 146.776 M217.945 159.340 C 217.945 160.554,216.894 163.061,216.385 163.061 C 215.677 163.061,215.594 162.566,216.003 160.770 C 216.410 158.982,216.457 158.908,217.186 158.908 C 217.721 158.908,217.945 159.036,217.945 159.340 M263.932 159.901 C 264.012 160.735,263.986 160.761,263.154 160.681 C 262.273 160.596,261.951 160.084,262.265 159.265 C 262.576 158.456,263.840 158.938,263.932 159.901 M323.222 177.698 L 323.147 180.104 199.805 180.169 L 76.463 180.235 76.463 177.764 L 76.463 175.293 199.880 175.293 L 323.297 175.293 323.222 177.698 " stroke="none" fill="#2fd4fc" fill-rule="evenodd"></path><path id="path1" d="M84.525 116.380 L 84.525 134.450 85.111 134.594 C 85.432 134.673,88.095 134.705,91.027 134.664 L 96.359 134.590 96.435 132.250 C 96.520 129.655,96.594 129.861,94.045 125.618 L 92.718 123.407 92.588 126.918 L 92.458 130.429 90.507 130.429 L 88.557 130.429 88.489 116.450 L 88.422 102.471 91.770 102.471 L 95.118 102.471 96.365 104.616 C 97.051 105.796,97.875 107.230,98.196 107.802 C 102.496 115.459,108.772 126.285,108.946 126.344 C 109.068 126.386,109.248 126.210,109.346 125.954 C 109.443 125.697,110.408 123.966,111.490 122.107 C 112.572 120.247,114.341 117.204,115.421 115.345 C 116.502 113.485,117.931 111.027,118.597 109.883 C 119.264 108.739,120.501 106.605,121.348 105.141 L 122.887 102.480 126.203 102.475 L 129.519 102.471 129.519 116.526 L 129.519 130.581 127.503 130.505 L 125.488 130.429 125.420 118.791 C 125.383 112.389,125.256 107.152,125.138 107.152 C 125.020 107.152,124.179 108.469,123.269 110.078 C 122.359 111.687,120.994 114.032,120.235 115.289 C 119.476 116.545,118.856 117.623,118.856 117.683 C 118.856 117.743,118.036 119.148,117.035 120.806 C 116.034 122.464,115.215 123.862,115.215 123.911 C 115.215 123.961,114.395 125.381,113.394 127.066 C 112.393 128.752,111.573 130.231,111.573 130.354 C 111.573 130.477,110.450 130.545,109.077 130.504 L 106.580 130.429 103.465 125.098 C 101.751 122.165,100.054 119.239,99.692 118.596 C 99.331 117.952,98.308 116.196,97.419 114.694 C 96.530 113.192,95.132 110.822,94.313 109.428 C 93.494 108.033,92.771 106.892,92.706 106.892 C 92.641 106.892,92.588 108.505,92.588 110.477 L 92.588 114.062 95.342 118.864 C 96.856 121.506,99.156 125.540,100.452 127.828 C 101.748 130.117,103.083 132.426,103.420 132.960 C 103.756 133.493,104.031 134.037,104.031 134.167 C 104.031 134.712,112.798 135.039,113.537 134.521 C 113.687 134.416,115.422 131.492,117.393 128.023 C 119.364 124.555,121.082 121.717,121.212 121.717 C 121.344 121.717,121.478 124.534,121.517 128.153 L 121.586 134.590 127.438 134.590 L 133.290 134.590 133.357 116.445 L 133.424 98.300 127.003 98.370 L 120.582 98.440 119.897 99.610 C 119.520 100.254,118.763 101.599,118.214 102.601 C 117.666 103.602,116.942 104.858,116.606 105.391 C 116.270 105.925,115.995 106.425,115.995 106.502 C 115.995 106.579,115.722 107.079,115.388 107.612 C 115.055 108.146,114.430 109.226,113.999 110.013 C 111.617 114.369,109.160 118.595,109.012 118.594 C 108.841 118.592,108.536 118.096,107.090 115.475 C 106.287 114.018,104.603 111.035,100.780 104.291 C 99.604 102.217,98.370 100.023,98.038 99.415 L 97.433 98.309 90.979 98.309 L 84.525 98.309 84.525 116.380 M141.222 98.556 C 141.222 98.692,142.661 100.886,144.420 103.432 C 146.179 105.979,148.381 109.174,149.314 110.533 C 150.247 111.892,151.821 114.174,152.813 115.604 L 154.616 118.204 154.746 126.397 L 154.876 134.590 160.793 134.660 L 166.710 134.730 166.710 126.572 L 166.710 118.414 171.538 111.437 C 174.193 107.600,176.735 103.925,177.187 103.271 C 177.639 102.616,178.568 101.306,179.251 100.358 C 179.935 99.411,180.494 98.563,180.494 98.473 C 180.494 98.383,177.239 98.309,173.261 98.309 L 166.028 98.309 165.503 99.025 C 163.931 101.170,158.648 109.240,158.648 109.496 C 158.648 109.922,160.556 112.621,160.801 112.543 C 160.984 112.485,162.079 110.939,166.503 104.496 L 167.880 102.489 170.286 102.480 C 171.609 102.475,172.692 102.537,172.692 102.618 C 172.692 102.700,171.676 104.250,170.435 106.064 C 169.194 107.879,166.971 111.149,165.494 113.332 L 162.809 117.302 162.809 123.930 L 162.809 130.559 160.858 130.559 L 158.908 130.559 158.908 123.956 L 158.908 117.354 157.955 115.959 C 157.432 115.192,155.831 112.867,154.399 110.793 C 152.966 108.719,151.271 106.261,150.631 105.332 C 149.990 104.402,149.309 103.456,149.116 103.230 C 148.519 102.533,148.690 102.471,151.205 102.471 L 153.645 102.471 154.753 104.171 C 156.054 106.169,156.097 106.168,157.408 104.095 C 158.555 102.281,158.618 102.588,156.502 99.675 L 155.510 98.309 148.366 98.309 C 144.040 98.309,141.222 98.407,141.222 98.556 M184.549 98.628 C 184.496 98.810,184.261 101.417,184.026 104.421 C 183.199 114.996,182.835 119.535,182.579 122.497 C 182.349 125.149,181.811 132.191,181.704 133.940 L 181.664 134.590 184.504 134.665 C 187.798 134.751,187.682 134.833,187.890 132.262 C 188.103 129.632,188.760 121.798,189.200 116.645 C 189.407 114.213,189.646 111.287,189.731 110.143 C 189.816 108.999,189.956 107.655,190.042 107.156 L 190.198 106.250 190.836 107.937 C 191.187 108.864,191.976 111.027,192.590 112.744 C 193.204 114.460,194.198 117.211,194.798 118.856 C 195.399 120.501,196.395 123.251,197.012 124.967 C 200.949 135.929,200.284 134.768,202.569 134.666 L 204.277 134.590 205.151 132.250 C 205.631 130.962,206.182 129.499,206.375 128.999 C 206.568 128.498,207.192 126.801,207.763 125.228 C 210.987 116.331,212.112 113.239,213.064 110.663 C 213.645 109.090,214.224 107.523,214.350 107.181 C 214.771 106.038,214.819 106.422,215.995 120.416 C 216.796 129.948,217.211 134.324,217.332 134.521 C 217.400 134.630,218.736 134.720,220.301 134.720 L 223.147 134.720 223.143 133.875 C 223.140 133.410,223.023 131.684,222.882 130.039 C 222.491 125.489,221.870 117.591,221.582 113.524 C 221.441 111.521,221.267 109.473,221.196 108.973 C 221.125 108.472,220.947 106.248,220.800 104.031 C 220.653 101.814,220.465 99.620,220.381 99.155 L 220.228 98.309 216.025 98.309 L 211.821 98.309 211.096 100.325 C 210.698 101.434,210.211 102.750,210.015 103.251 C 209.465 104.653,203.139 121.979,202.726 123.212 C 202.467 123.987,202.106 123.294,200.695 119.311 C 199.871 116.986,199.035 114.675,198.837 114.174 C 198.638 113.674,197.991 111.918,197.399 110.273 C 196.807 108.628,196.163 106.873,195.968 106.372 C 195.773 105.871,195.040 103.882,194.339 101.951 L 193.064 98.440 188.854 98.368 C 185.616 98.313,184.622 98.373,184.549 98.628 M234.764 98.483 C 234.515 98.732,234.557 134.005,234.807 134.398 C 234.970 134.655,237.161 134.712,244.881 134.659 L 254.746 134.590 254.821 131.925 L 254.895 129.259 247.863 129.259 L 240.832 129.259 240.832 124.187 L 240.832 119.116 247.083 119.116 L 253.334 119.116 253.260 116.450 L 253.186 113.784 247.004 113.714 L 240.821 113.645 240.892 108.643 L 240.962 103.641 247.919 103.572 L 254.876 103.503 254.876 100.906 L 254.876 98.309 244.907 98.309 C 239.423 98.309,234.859 98.388,234.764 98.483 M274.790 99.155 C 274.600 99.620,273.716 101.990,272.827 104.421 C 271.938 106.853,270.413 111.008,269.440 113.654 C 268.466 116.300,266.831 120.748,265.807 123.537 C 264.783 126.326,263.786 129.018,263.591 129.519 C 261.450 135.032,261.369 134.764,265.160 134.665 L 267.986 134.590 268.565 133.030 C 268.884 132.172,269.535 130.358,270.012 128.999 L 270.879 126.528 278.661 126.459 C 282.940 126.421,286.541 126.489,286.661 126.609 C 286.782 126.730,287.503 128.575,288.264 130.709 L 289.649 134.590 292.553 134.664 C 294.836 134.722,295.488 134.661,295.596 134.378 C 295.703 134.101,293.280 127.085,291.809 123.407 C 291.694 123.121,290.875 120.897,289.989 118.466 C 287.383 111.314,284.778 104.230,284.394 103.251 C 284.198 102.750,283.711 101.434,283.312 100.325 L 282.587 98.309 278.862 98.309 L 275.136 98.309 274.790 99.155 M304.875 116.450 L 304.941 134.590 313.843 134.659 L 322.745 134.727 322.893 134.138 C 322.975 133.814,323.006 132.612,322.964 131.469 L 322.887 129.389 316.905 129.259 L 310.923 129.129 310.856 113.719 L 310.789 98.309 307.799 98.309 L 304.808 98.309 304.875 116.450 M280.245 108.075 C 280.905 109.928,281.599 111.912,281.788 112.484 C 281.976 113.056,282.682 115.046,283.356 116.905 C 284.030 118.765,284.641 120.491,284.714 120.741 C 284.837 121.165,284.437 121.196,278.834 121.196 C 275.527 121.196,272.822 121.159,272.822 121.114 C 272.822 121.068,273.245 119.869,273.761 118.448 C 274.278 117.027,274.854 115.397,275.041 114.824 C 275.679 112.875,278.516 105.067,278.686 104.791 C 278.933 104.392,278.936 104.399,280.245 108.075 M136.207 145.025 C 136.104 145.127,136.021 148.702,136.021 152.969 L 136.021 160.728 137.061 160.728 L 138.101 160.728 138.112 157.672 C 138.123 154.186,138.284 154.284,139.391 158.453 L 139.996 160.728 141.027 160.728 C 141.794 160.728,142.023 160.637,141.921 160.371 C 141.846 160.175,141.534 159.151,141.229 158.096 C 140.923 157.040,140.435 155.384,140.144 154.415 L 139.615 152.653 140.434 149.994 C 140.885 148.531,141.417 146.831,141.617 146.216 C 142.018 144.980,141.843 144.738,140.670 144.908 C 140.166 144.981,139.943 145.414,139.155 147.854 L 138.231 150.715 138.101 147.854 L 137.971 144.993 137.182 144.916 C 136.748 144.874,136.309 144.922,136.207 145.025 M143.303 152.785 L 143.303 160.728 145.514 160.728 L 147.724 160.728 147.724 159.832 C 147.724 158.948,147.708 158.935,146.489 158.857 L 145.254 158.778 145.254 156.047 L 145.254 153.316 146.359 153.236 C 148.122 153.108,147.766 151.625,145.972 151.625 L 145.105 151.625 145.179 149.090 L 145.254 146.554 146.505 146.474 C 147.694 146.398,147.752 146.359,147.675 145.694 C 147.595 145.004,147.563 144.992,145.449 144.918 L 143.303 144.842 143.303 152.785 M149.285 152.785 L 149.285 160.728 151.495 160.728 L 153.706 160.728 153.706 159.832 C 153.706 158.948,153.690 158.935,152.471 158.857 L 151.235 158.778 151.235 156.047 L 151.235 153.316 152.226 153.234 C 153.708 153.112,153.577 151.799,152.071 151.674 L 151.087 151.593 151.161 149.073 L 151.235 146.554 152.487 146.474 C 153.675 146.398,153.734 146.359,153.657 145.694 C 153.577 145.004,153.545 144.992,151.430 144.918 L 149.285 144.842 149.285 152.785 M155.267 152.796 L 155.267 160.728 156.177 160.728 L 157.087 160.728 157.087 157.493 L 157.087 154.258 158.306 154.075 C 160.535 153.741,161.290 152.010,160.891 148.149 C 160.619 145.512,159.914 144.938,156.892 144.889 L 155.267 144.863 155.267 152.796 M166.868 145.275 C 166.781 145.501,166.710 149.071,166.710 153.207 L 166.710 160.728 167.743 160.728 L 168.776 160.728 168.849 157.022 L 168.921 153.316 169.831 153.316 L 170.741 153.316 170.813 157.022 L 170.886 160.728 171.789 160.728 L 172.692 160.728 172.692 152.796 L 172.692 144.863 171.782 144.863 L 170.871 144.863 170.871 148.244 L 170.871 151.625 169.831 151.625 L 168.791 151.625 168.791 148.244 L 168.791 144.863 167.908 144.863 C 167.343 144.863,166.969 145.012,166.868 145.275 M174.946 145.037 C 174.850 145.132,174.772 148.702,174.772 152.969 L 174.772 160.728 176.983 160.728 L 179.194 160.728 179.194 159.818 C 179.194 158.912,179.188 158.908,178.023 158.908 L 176.853 158.908 176.853 156.047 L 176.853 153.186 177.911 153.186 C 179.461 153.186,179.386 151.804,177.828 151.675 L 176.853 151.594 176.853 149.009 L 176.853 146.424 178.023 146.424 C 179.150 146.424,179.194 146.395,179.194 145.644 L 179.194 144.863 177.156 144.863 C 176.036 144.863,175.041 144.941,174.946 145.037 M182.006 145.366 C 180.922 146.219,180.754 147.420,180.754 154.321 L 180.754 160.728 181.795 160.728 L 182.835 160.728 182.835 158.518 L 182.835 156.307 183.745 156.307 L 184.655 156.307 184.655 158.518 L 184.655 160.728 185.731 160.728 L 186.806 160.728 186.672 154.031 C 186.524 146.694,186.323 145.609,185.021 145.114 C 183.972 144.715,182.698 144.822,182.006 145.366 M188.817 152.779 L 188.817 160.728 191.027 160.728 L 193.238 160.728 193.238 159.832 C 193.238 158.948,193.222 158.935,192.003 158.857 L 190.767 158.778 190.637 151.886 L 190.507 144.993 189.662 144.912 L 188.817 144.831 188.817 152.779 M193.609 145.499 C 193.385 146.391,193.651 146.684,194.684 146.684 L 195.579 146.684 195.579 153.706 L 195.579 160.728 196.619 160.728 L 197.659 160.728 197.659 153.706 L 197.659 146.684 198.570 146.684 C 199.436 146.684,199.480 146.641,199.480 145.774 L 199.480 144.863 196.624 144.863 C 193.812 144.863,193.766 144.873,193.609 145.499 M200.780 152.796 L 200.780 160.728 201.821 160.728 L 202.861 160.728 202.861 156.941 L 202.861 153.153 203.706 153.234 L 204.551 153.316 204.624 157.022 L 204.696 160.728 205.733 160.728 L 206.770 160.728 206.701 152.861 L 206.632 144.993 205.722 144.993 L 204.811 144.993 204.739 148.309 L 204.666 151.625 203.763 151.625 L 202.861 151.625 202.861 148.656 C 202.861 145.048,202.802 144.863,201.663 144.863 L 200.780 144.863 200.780 152.796 M208.062 145.258 C 208.062 145.475,208.531 147.477,209.103 149.707 C 210.063 153.448,210.143 154.029,210.143 157.244 L 210.143 160.728 211.183 160.728 L 212.224 160.728 212.228 157.152 C 212.232 153.517,212.268 153.294,213.762 147.610 C 214.476 144.894,214.472 144.863,213.420 144.863 C 212.445 144.863,212.381 145.014,211.710 148.883 C 211.302 151.235,211.032 151.145,210.545 148.492 C 209.930 145.146,209.798 144.863,208.849 144.863 C 208.319 144.863,208.062 144.992,208.062 145.258 M224.447 152.796 L 224.447 160.728 226.658 160.728 L 228.869 160.728 228.869 159.818 C 228.869 158.912,228.862 158.908,227.698 158.908 L 226.528 158.908 226.528 156.047 L 226.528 153.186 227.586 153.186 C 229.136 153.186,229.061 151.804,227.503 151.675 L 226.528 151.594 226.528 149.009 L 226.528 146.424 227.698 146.424 C 228.825 146.424,228.869 146.395,228.869 145.644 L 228.869 144.863 226.658 144.863 L 224.447 144.863 224.447 152.796 M231.644 145.395 C 230.588 146.226,230.432 147.368,230.431 154.291 L 230.429 160.728 231.329 160.728 L 232.229 160.728 232.304 158.583 L 232.380 156.437 233.355 156.356 L 234.330 156.275 234.330 158.502 L 234.330 160.728 235.371 160.728 L 236.411 160.728 236.411 155.093 C 236.411 146.463,235.951 144.863,233.467 144.863 C 232.705 144.863,232.093 145.042,231.644 145.395 M239.207 145.138 C 237.044 146.427,237.570 151.704,240.023 153.327 C 241.601 154.372,242.249 156.304,241.705 158.336 C 241.368 159.593,240.203 158.987,240.052 157.477 C 239.870 155.657,237.970 155.227,237.973 157.006 C 237.978 160.574,240.836 162.431,242.908 160.213 C 244.490 158.520,244.160 153.861,242.374 152.666 C 242.053 152.451,241.395 151.938,240.911 151.525 L 240.032 150.774 240.107 148.664 C 240.201 146.033,241.176 145.465,241.721 147.724 C 241.979 148.798,242.076 148.902,242.883 148.979 L 243.763 149.063 243.634 147.724 C 243.406 145.348,241.107 144.005,239.207 145.138 M245.687 145.037 C 245.592 145.132,245.514 148.702,245.514 152.969 L 245.514 160.728 246.554 160.728 L 247.594 160.728 247.594 153.207 C 247.594 149.071,247.523 145.501,247.436 145.275 C 247.280 144.866,246.028 144.696,245.687 145.037 M249.588 145.037 C 249.493 145.132,249.415 148.702,249.415 152.969 L 249.415 160.728 251.756 160.728 L 254.096 160.728 254.096 159.818 L 254.096 158.908 252.796 158.908 L 251.495 158.908 251.495 152.297 C 251.495 148.661,251.424 145.501,251.338 145.275 C 251.181 144.866,249.929 144.696,249.588 145.037 M254.584 144.983 C 254.505 145.062,254.947 147.144,255.567 149.611 C 256.602 153.729,256.694 154.367,256.695 157.412 L 256.697 160.728 257.720 160.728 L 258.743 160.728 258.847 156.502 C 258.944 152.616,259.029 151.995,259.910 148.782 C 260.918 145.104,260.896 144.765,259.669 144.908 C 258.956 144.991,258.924 145.064,258.409 147.792 C 257.841 150.800,257.469 151.197,257.152 149.133 C 256.572 145.355,255.670 143.897,254.584 144.983 M262.332 145.037 C 262.110 145.259,262.109 150.098,262.329 154.199 L 262.500 157.374 263.175 157.296 L 263.849 157.217 263.919 151.040 L 263.989 144.863 263.247 144.863 C 262.839 144.863,262.427 144.941,262.332 145.037 M158.899 146.927 C 159.187 147.466,159.272 151.312,159.010 151.994 C 158.909 152.258,158.534 152.406,157.970 152.406 L 157.087 152.406 157.087 149.588 C 157.087 148.039,157.165 146.693,157.261 146.597 C 157.620 146.238,158.640 146.443,158.899 146.927 M184.423 147.206 C 184.522 147.562,184.615 149.405,184.629 151.300 L 184.655 154.746 183.745 154.746 L 182.835 154.746 182.807 152.861 C 182.755 149.310,182.884 147.074,183.160 146.738 C 183.575 146.234,184.219 146.472,184.423 147.206 M234.077 147.091 C 234.216 147.458,234.330 149.331,234.330 151.252 L 234.330 154.746 233.425 154.746 C 232.663 154.746,232.492 154.638,232.347 154.058 C 232.094 153.049,232.460 147.188,232.802 146.776 C 233.257 146.226,233.799 146.360,234.077 147.091 M216.003 160.770 C 215.659 162.283,215.643 162.673,215.917 162.847 C 216.637 163.304,216.958 162.974,217.497 161.226 C 218.129 159.178,218.092 158.908,217.186 158.908 C 216.457 158.908,216.410 158.982,216.003 160.770 M262.265 159.265 C 261.951 160.084,262.273 160.596,263.154 160.681 C 263.986 160.761,264.012 160.735,263.932 159.901 C 263.840 158.938,262.576 158.456,262.265 159.265 M76.463 177.764 L 76.463 180.235 199.805 180.169 L 323.147 180.104 323.222 177.698 L 323.297 175.293 199.880 175.293 L 76.463 175.293 76.463 177.764 " stroke="none" fill="#f9fbfc" fill-rule="evenodd"></path></g></svg>